<svg width="51" height="51" viewBox="0 0 51 51" fill="none" xmlns="http://www.w3.org/2000/svg">
<path d="M37.9998 31.75H12.9998L4.6665 40.0833V6.74999C4.6665 6.19746 4.886 5.66755 5.2767 5.27685C5.6674 4.88615 6.1973 4.66666 6.74984 4.66666H37.9998C38.5524 4.66666 39.0823 4.88615 39.473 5.27685C39.8637 5.66755 40.0832 6.19746 40.0832 6.74999V29.6667C40.0832 30.2192 39.8637 30.7491 39.473 31.1398C39.0823 31.5305 38.5524 31.75 37.9998 31.75ZM48.4165 19.25V48.4167L40.0832 40.0833H17.1665C16.614 40.0833 16.0841 39.8638 15.6934 39.4731C15.3027 39.0824 15.0832 38.5525 15.0832 38V35.9167H44.2498V17.1667H46.3332C46.8857 17.1667 47.4156 17.3861 47.8063 17.7769C48.197 18.1676 48.4165 18.6975 48.4165 19.25ZM17.5623 8.83332C15.7498 8.83332 14.2915 9.24999 13.1665 10.0625C12.0832 10.9167 11.5415 12.1042 11.5623 13.75L11.5832 13.8125H15.604C15.6248 13.1875 15.8123 12.7083 16.1873 12.375C16.5731 12.0551 17.0613 11.885 17.5623 11.8958C18.2082 11.8958 18.7498 12.1042 19.1248 12.4792C19.4998 12.875 19.6665 13.4167 19.6665 14.0417C19.6665 14.7083 19.5207 15.2708 19.1873 15.75C18.8957 16.2292 18.4582 16.6458 17.9165 16.9792C16.854 17.6875 16.1248 18.3125 15.729 18.875C15.3123 19.4167 15.0832 20.2917 15.0832 21.3333H19.2498C19.2498 20.6875 19.3332 20.1667 19.5207 19.7917C19.7082 19.4167 20.0623 19.0417 20.5832 18.7083C21.5207 18.2083 22.2915 17.6042 22.8957 16.7708C23.4998 15.9375 23.8123 15.0833 23.8123 14.0417C23.8123 12.4583 23.2498 11.1875 22.1248 10.25C21.0207 9.31249 19.4998 8.83332 17.5623 8.83332ZM15.0832 23.4167V27.5833H19.2498V23.4167H15.0832ZM27.5832 27.5833H31.7498V23.4167H27.5832V27.5833ZM27.5832 8.83332V21.3333H31.7498V8.83332H27.5832Z" fill="#E4F8FF"/>
</svg>
