<svg width="53" height="53" viewBox="0 0 53 53" fill="none" xmlns="http://www.w3.org/2000/svg">
<path fill-rule="evenodd" clip-rule="evenodd" d="M46.98 7.17647C46.2378 3.65201 43.1 1.32977 39.5289 1.50977C36.1278 1.68088 30.829 2.07644 23.3834 2.98089C15.939 3.88423 10.7001 4.76868 7.35793 5.41535C3.84572 6.09646 1.36462 9.10648 1.50573 12.7065C1.5535 13.9332 1.63462 15.4076 1.7635 17.141C2.76017 13.3109 6.10127 10.6131 10.0579 10.3398C13.5324 10.0987 19.2612 9.83314 27.6112 9.83314C35.9612 9.83314 41.69 10.0998 45.1645 10.3398C46.0288 10.3991 46.8809 10.5771 47.6967 10.8687C47.4404 9.44648 47.2015 8.21573 46.98 7.17647ZM27.6112 51.5C19.3201 51.5 13.6557 51.2356 10.249 51C7.11571 50.7833 4.58238 48.4378 4.27127 45.2511C3.99683 42.4455 3.72239 38.1211 3.72239 32.0555C3.72239 25.9899 3.99683 21.6654 4.27127 18.8599C4.58238 15.6732 7.11571 13.3265 10.249 13.1109C13.6546 12.8754 19.3201 12.6109 27.6112 12.6109C35.9023 12.6109 41.5667 12.8754 44.9734 13.1109C48.1067 13.3276 50.64 15.6732 50.9511 18.8599C51.2256 21.6654 51.5 25.9899 51.5 32.0555C51.5 38.1211 51.2256 42.4455 50.9511 45.2511C50.64 48.4378 48.1067 50.7844 44.9734 51C41.5678 51.2356 35.9023 51.5 27.6112 51.5ZM12.0557 20.3887C11.6137 20.3887 11.1897 20.5643 10.8772 20.8769C10.5646 21.1895 10.389 21.6134 10.389 22.0554C10.389 22.4975 10.5646 22.9214 10.8772 23.2339C11.1897 23.5465 11.6137 23.7221 12.0557 23.7221H20.9446C21.3866 23.7221 21.8105 23.5465 22.1231 23.2339C22.4356 22.9214 22.6112 22.4975 22.6112 22.0554C22.6112 21.6134 22.4356 21.1895 22.1231 20.8769C21.8105 20.5643 21.3866 20.3887 20.9446 20.3887H12.0557ZM12.0557 33.7221C11.6137 33.7221 11.1897 33.8977 10.8772 34.2103C10.5646 34.5229 10.389 34.9468 10.389 35.3888C10.389 35.8308 10.5646 36.2548 10.8772 36.5673C11.1897 36.8799 11.6137 37.0555 12.0557 37.0555H20.9446C21.3866 37.0555 21.8105 36.8799 22.1231 36.5673C22.4356 36.2548 22.6112 35.8308 22.6112 35.3888C22.6112 34.9468 22.4356 34.5229 22.1231 34.2103C21.8105 33.8977 21.3866 33.7221 20.9446 33.7221H12.0557ZM10.389 42.0555C10.389 41.6135 10.5646 41.1896 10.8772 40.877C11.1897 40.5644 11.6137 40.3888 12.0557 40.3888H43.1667C43.6087 40.3888 44.0326 40.5644 44.3452 40.877C44.6578 41.1896 44.8334 41.6135 44.8334 42.0555C44.8334 42.4975 44.6578 42.9215 44.3452 43.234C44.0326 43.5466 43.6087 43.7222 43.1667 43.7222H12.0557C11.6137 43.7222 11.1897 43.5466 10.8772 43.234C10.5646 42.9215 10.389 42.4975 10.389 42.0555ZM12.0557 27.0554C11.6137 27.0554 11.1897 27.231 10.8772 27.5436C10.5646 27.8562 10.389 28.2801 10.389 28.7221C10.389 29.1641 10.5646 29.5881 10.8772 29.9006C11.1897 30.2132 11.6137 30.3888 12.0557 30.3888H20.9446C21.3866 30.3888 21.8105 30.2132 22.1231 29.9006C22.4356 29.5881 22.6112 29.1641 22.6112 28.7221C22.6112 28.2801 22.4356 27.8562 22.1231 27.5436C21.8105 27.231 21.3866 27.0554 20.9446 27.0554H12.0557ZM35.3889 37.0555C33.189 37.0555 31.5145 36.9888 30.3134 36.911C29.5017 36.8676 28.7347 36.5256 28.1598 35.9509C27.585 35.3763 27.2428 34.6094 27.199 33.7977C27.0975 32.1078 27.0497 30.4151 27.0556 28.7221C27.0556 26.5221 27.1223 24.8477 27.2001 23.6465C27.2436 22.8348 27.5855 22.0678 28.1602 21.493C28.7349 20.9181 29.5017 20.5759 30.3134 20.5321C31.5145 20.4543 33.1878 20.3887 35.3889 20.3887C37.59 20.3887 39.2634 20.4554 40.4645 20.5332C41.2762 20.5767 42.0432 20.9186 42.618 21.4933C43.1929 22.068 43.5351 22.8349 43.5789 23.6465C43.6567 24.8477 43.7222 26.521 43.7222 28.7221C43.7222 30.9232 43.6556 32.5966 43.5778 33.7977C43.5343 34.6094 43.1924 35.3764 42.6177 35.9513C42.043 36.5262 41.2762 36.8684 40.4645 36.9122C39.2634 36.9899 37.59 37.0555 35.3889 37.0555Z" fill="#E4F8FF"/>
</svg>
