<svg width="51" height="49" viewBox="0 0 51 49" fill="none" xmlns="http://www.w3.org/2000/svg">
<path fill-rule="evenodd" clip-rule="evenodd" d="M22.7219 0.0109908C22.2402 0.195015 21.6927 0.576655 21.0912 1.25942C20.1681 2.30711 19.2642 3.91104 18.4727 6.01895C17.6293 8.26383 16.9492 10.9876 16.4972 14.0282H30.3884C29.9364 10.9876 29.2553 8.26383 28.4129 6.01895C27.6214 3.91104 26.7175 2.30711 25.7944 1.25942C25.1929 0.576655 24.6443 0.195015 24.1637 0.0109908C23.6829 -0.00366361 23.2027 -0.00366361 22.7219 0.0109908ZM13.2814 14.0282H2.21028C4.90831 7.55387 10.5654 2.58628 17.5232 0.759633C16.7529 1.95474 16.0739 3.36838 15.4872 4.93049C14.5164 7.51728 13.7599 10.6154 13.2825 14.0271M1.16947 28.0558H12.9292C12.7754 26.2446 12.6989 24.4279 12.7 22.6104C12.7 20.7492 12.7796 18.9257 12.9302 17.1649H1.16947C0.723682 18.9467 0.498883 20.7752 0.500004 22.6104C0.500004 24.4882 0.732355 26.3118 1.16947 28.0558ZM13.2804 31.1926C13.5658 33.2419 13.952 35.1763 14.4241 36.9569V43.4082C8.88779 41.0676 4.50293 36.6817 2.21028 31.1915L13.2804 31.1926ZM31.3984 4.93049C30.8117 3.36838 30.1316 1.95474 29.3614 0.758587C36.3213 2.58523 41.9784 7.55283 44.6753 14.0271H33.6031C33.1257 10.6154 32.3692 7.51728 31.3984 4.93049ZM45.7172 17.1639H33.9553C34.0774 18.5953 34.1527 20.0664 34.176 21.5658C35.2569 21.5785 36.3288 21.7606 37.3515 22.1053C38.9047 22.6281 41.3747 23.5106 44.7613 24.8657C45.2691 25.0692 45.7511 25.2644 46.2073 25.4512C46.5599 22.6828 46.3938 19.8731 45.7172 17.1639ZM30.7608 17.1649C30.9052 18.7819 30.9849 20.4038 30.9995 22.0269L30.7534 22.1064C29.1991 22.6292 26.7291 23.5117 23.3436 24.8667C21.2323 25.7126 19.5751 26.4174 18.303 26.983C17.6871 27.2559 17.1161 27.6179 16.6086 28.0568H16.1237C15.9621 26.2457 15.8817 24.4285 15.8829 22.6104C15.8829 20.7356 15.9678 18.9121 16.1248 17.1649H30.7608ZM31.7836 24.552C33.2549 24.0552 34.8521 24.0552 36.3234 24.552C37.8194 25.056 40.2331 25.9165 43.5645 27.2496C45.2209 27.9094 46.8646 28.5996 48.4948 29.3199C49.7531 29.8793 50.5 31.0263 50.5 32.2716C50.5 33.5169 49.7531 34.6639 48.4948 35.2233C46.8646 35.9433 45.2209 36.6332 43.5645 37.2925C40.2331 38.6267 37.8194 39.4872 36.3234 39.9902C34.8518 40.4873 33.2541 40.4873 31.7825 39.9902C30.2876 39.4872 27.8739 38.6267 24.5425 37.2925C23.2852 36.7906 22.0346 36.2726 20.7909 35.7388V44.8814C20.7909 45.2974 20.6232 45.6963 20.3248 45.9904C20.0263 46.2846 19.6216 46.4498 19.1995 46.4498C18.7774 46.4498 18.3726 46.2846 18.0742 45.9904C17.7757 45.6963 17.608 45.2974 17.608 44.8814V32.3835L17.6059 32.2706C17.6059 31.0253 18.3539 29.8783 19.6111 29.3189C21.2417 28.5985 22.8857 27.9083 24.5425 27.2486C27.8739 25.9155 30.2876 25.056 31.7836 24.552ZM30.7544 42.9575C29.216 42.44 26.779 41.57 23.4433 40.2369C23.4486 42.2695 23.5558 43.6037 23.6714 44.4611C23.7474 45.0572 23.9695 45.6261 24.3185 46.1187C24.6675 46.6112 25.1329 47.0127 25.6745 47.2884C27.1217 48.0255 29.8399 49 34.053 49C38.266 49 40.9832 48.0255 42.4314 47.2884C42.973 47.0125 43.4382 46.6108 43.787 46.118C44.1358 45.6253 44.3577 45.0562 44.4334 44.46C44.5501 43.6037 44.6562 42.2695 44.6626 40.238C41.3269 41.5711 38.8909 42.44 37.3526 42.9575C35.2094 43.679 32.8965 43.679 30.7534 42.9575" fill="#E4F8FF"/>
</svg>
