<svg width="51" height="45" viewBox="0 0 51 45" fill="none" xmlns="http://www.w3.org/2000/svg">
<path d="M35.5 8.58824H40.5V44H10.5V8.58824H15.5V6.05882C15.5 4.71714 16.0268 3.43041 16.9645 2.48169C17.9021 1.53298 19.1739 1 20.5 1H30.5C31.8261 1 33.0979 1.53298 34.0355 2.48169C34.9732 3.43041 35.5 4.71714 35.5 6.05882V8.58824ZM43 8.58824H45.5C46.8261 8.58824 48.0979 9.12122 49.0355 10.0699C49.9732 11.0186 50.5 12.3054 50.5 13.6471V38.9412C50.5 40.2829 49.9732 41.5696 49.0355 42.5183C48.0979 43.467 46.8261 44 45.5 44H43V8.58824ZM8 8.58824V44H5.5C4.17392 44 2.90215 43.467 1.96447 42.5183C1.02678 41.5696 0.5 40.2829 0.5 38.9412V13.6471C0.5 10.8647 2.75 8.58824 5.5 8.58824H8ZM20.5 6.05882V8.58824H30.5V6.05882H20.5Z" fill="#E4F8FF"/>
</svg>
