<svg width="53" height="57" viewBox="0 0 53 57" fill="none" xmlns="http://www.w3.org/2000/svg">
<path d="M25.4829 54.3775L25.4554 54.3825L25.2779 54.47L25.2279 54.48L25.1929 54.47L25.0154 54.3825C24.9888 54.3742 24.9688 54.3783 24.9554 54.395L24.9454 54.42L24.9029 55.49L24.9154 55.54L24.9404 55.5725L25.2004 55.7575L25.2379 55.7675L25.2679 55.7575L25.5279 55.5725L25.5579 55.5325L25.5679 55.49L25.5254 54.4225C25.5188 54.3958 25.5046 54.3808 25.4829 54.3775ZM26.1454 54.095L26.1129 54.1L25.6504 54.3325L25.6254 54.3575L25.6179 54.385L25.6629 55.46L25.6754 55.49L25.6954 55.5075L26.1979 55.74C26.2296 55.7483 26.2538 55.7417 26.2704 55.72L26.2804 55.685L26.1954 54.15C26.1871 54.12 26.1704 54.1017 26.1454 54.095ZM24.3579 54.1C24.3469 54.0933 24.3337 54.0912 24.3212 54.094C24.3086 54.0968 24.2976 54.1043 24.2904 54.115L24.2754 54.15L24.1904 55.685C24.1921 55.715 24.2063 55.735 24.2329 55.745L24.2704 55.74L24.7729 55.5075L24.7979 55.4875L24.8079 55.46L24.8504 54.385L24.8429 54.355L24.8179 54.33L24.3579 54.1Z" fill="#144A5D"/>
<path d="M34 31.2325C37.3152 31.2325 40.4946 32.5495 42.8388 34.8937C45.183 37.2379 46.5 40.4173 46.5 43.7325V46.2325C46.5 47.5586 45.9732 48.8304 45.0355 49.7681C44.0979 50.7058 42.8261 51.2325 41.5 51.2325H6.5C5.17392 51.2325 3.90215 50.7058 2.96447 49.7681C2.02678 48.8304 1.5 47.5586 1.5 46.2325V43.7325C1.5 40.4173 2.81696 37.2379 5.16117 34.8937C7.50537 32.5495 10.6848 31.2325 14 31.2325H34ZM44 16.2325C44.663 16.2325 45.2989 16.4959 45.7678 16.9648C46.2366 17.4336 46.5 18.0695 46.5 18.7325V21.2325H49C49.663 21.2325 50.2989 21.4959 50.7678 21.9648C51.2366 22.4336 51.5 23.0695 51.5 23.7325C51.5 24.3956 51.2366 25.0315 50.7678 25.5003C50.2989 25.9692 49.663 26.2325 49 26.2325H46.5V28.7325C46.5 29.3956 46.2366 30.0315 45.7678 30.5003C45.2989 30.9692 44.663 31.2325 44 31.2325C43.337 31.2325 42.7011 30.9692 42.2322 30.5003C41.7634 30.0315 41.5 29.3956 41.5 28.7325V26.2325H39C38.337 26.2325 37.7011 25.9692 37.2322 25.5003C36.7634 25.0315 36.5 24.3956 36.5 23.7325C36.5 23.0695 36.7634 22.4336 37.2322 21.9648C37.7011 21.4959 38.337 21.2325 39 21.2325H41.5V18.7325C41.5 18.0695 41.7634 17.4336 42.2322 16.9648C42.7011 16.4959 43.337 16.2325 44 16.2325ZM24 1.23254C27.3152 1.23254 30.4946 2.5495 32.8388 4.89371C35.183 7.23791 36.5 10.4173 36.5 13.7325C36.5 17.0478 35.183 20.2272 32.8388 22.5714C30.4946 24.9156 27.3152 26.2325 24 26.2325C20.6848 26.2325 17.5054 24.9156 15.1612 22.5714C12.817 20.2272 11.5 17.0478 11.5 13.7325C11.5 10.4173 12.817 7.23791 15.1612 4.89371C17.5054 2.5495 20.6848 1.23254 24 1.23254Z" fill="#144A5D"/>
</svg>
