<svg width="51" height="41" viewBox="0 0 51 41" fill="none" xmlns="http://www.w3.org/2000/svg">
<path d="M38.6267 15.5H26.7517V19.875C26.7517 22.9766 24.2283 25.5 21.1267 25.5C18.0252 25.5 15.5018 22.9766 15.5018 19.875V10.375L10.4315 13.4219C8.92364 14.3203 8.00177 15.9531 8.00177 17.7031V21.3984L1.75178 25.0078C0.556469 25.6953 0.142408 27.2265 0.837719 28.4219L7.08771 39.25C7.77521 40.4453 9.30645 40.8515 10.5018 40.164L18.5799 35.5H29.2517C32.0095 35.5 34.2517 33.2578 34.2517 30.5H35.5017C36.8845 30.5 38.0017 29.3828 38.0017 28V23H38.6267C39.6658 23 40.5017 22.1641 40.5017 21.125V17.375C40.5017 16.3359 39.6658 15.5 38.6267 15.5ZM50.1658 12.5781L43.9158 1.75003C43.2283 0.554722 41.697 0.148472 40.5017 0.835971L32.4236 5.50003H24.4392C23.5017 5.50003 22.5877 5.76565 21.7908 6.25784L19.1736 7.89065C18.4392 8.34377 18.0018 9.14846 18.0018 10.0078V19.875C18.0018 21.6016 19.4002 23 21.1267 23C22.8533 23 24.2517 21.6016 24.2517 19.875V13H38.6267C41.0408 13 43.0017 14.9609 43.0017 17.375V19.6016L49.2517 15.9922C50.447 15.2969 50.8533 13.7734 50.1658 12.5781Z" fill="#E4F8FF"/>
</svg>
