<svg width="55" height="67" viewBox="0 0 55 67" fill="none" xmlns="http://www.w3.org/2000/svg">
<path d="M20.6898 65.5V60.9299H34.3273V65.5H20.6898ZM52.5 26.6538C52.5028 30.3613 51.6869 34.0232 50.1112 37.375C48.5355 40.7268 46.2394 43.6849 43.3886 46.0358C40.6666 48.2934 38.867 51.4879 38.867 55.0389V56.3597H16.1455V55.336C16.1455 51.9084 14.7685 48.5265 12.0828 46.4105C8.45602 43.5575 5.68453 39.7513 4.0749 35.4128C2.46528 31.0743 2.08024 26.3726 2.96239 21.8277C4.76194 12.0841 12.4691 4.10923 22.1167 2.08466C25.7701 1.2785 29.5568 1.30635 33.1982 2.16617C36.8395 3.02599 40.2429 4.69589 43.1578 7.05302C46.0728 9.41016 48.4251 12.3945 50.0419 15.7866C51.6586 19.1787 52.4986 22.8921 52.5 26.6538ZM13.8733 28.9388C13.8733 19.4923 19.2629 12.9433 27.5063 12.9433V8.37318C16.5408 8.37318 9.32898 17.1387 9.32898 28.9388H13.8733Z" fill="#E4F8FF"/>
</svg>
