<svg width="51" height="37" viewBox="0 0 51 37" fill="none" xmlns="http://www.w3.org/2000/svg">
<path d="M40.4321 36.4983H46.3616C49.1071 36.4983 50.5 35.2139 50.5 32.6628V4.35555C50.5 1.8044 49.1071 0.5 46.3616 0.5H40.433C37.7071 0.5 36.2938 1.8044 36.2938 4.35468V32.6637C36.2938 35.2139 37.7071 36.4983 40.4321 36.4983ZM22.5259 36.4991H28.4545C31.2009 36.4991 32.6134 35.2148 32.6134 32.6637V10.0406C32.6134 7.49032 31.2009 6.18591 28.4545 6.18591H22.5259C19.8 6.18591 18.4071 7.49032 18.4071 10.0406V32.6645C18.4071 35.2148 19.8 36.4991 22.5259 36.4991ZM4.63839 36.5H10.567C13.3134 36.5 14.7063 35.2157 14.7063 32.6645V15.7064C14.7063 13.1553 13.3134 11.8517 10.5679 11.8517H4.63929C1.91161 11.8509 0.5 13.1553 0.5 15.7055V32.6637C0.5 35.2139 1.9125 36.5 4.63839 36.5Z" fill="#E4F8FF"/>
</svg>
