<svg width="24" height="24" viewBox="0 0 24 24" fill="none" xmlns="http://www.w3.org/2000/svg">
<path d="M5.81 2C4.83 2.09 4 3 4 4V20C4 21.05 4.95 22 6 22H18C19.05 22 20 21.05 20 20V4C20 3.46957 19.7893 2.96086 19.4142 2.58579C19.0391 2.21071 18.5304 2 18 2H12V9L9.5 7.5L7 9V2H5.81ZM12 13H13C13.2652 13 13.5196 13.1054 13.7071 13.2929C13.8946 13.4804 14 13.7348 14 14V18H13V16H12V18H11V14C11 13.7348 11.1054 13.4804 11.2929 13.2929C11.4804 13.1054 11.7348 13 12 13ZM12 14V15H13V14H12ZM15 15H18V16L16 19H18V20H15V19L17 16H15V15Z" fill="#F5F5F5"/>
</svg>
