<svg width="53" height="55" viewBox="0 0 53 55" fill="none" xmlns="http://www.w3.org/2000/svg">
<path d="M51.0731 33.125L33.1758 51C32.6751 51.5 32.1119 51.875 31.4862 52.125C30.8604 52.375 30.2346 52.5 29.6088 52.5C28.983 52.5 28.3572 52.375 27.7315 52.125C27.1057 51.875 26.5425 51.5 26.0419 51L3.95175 28.9375C3.49284 28.4792 3.13823 27.9483 2.88792 27.345C2.63761 26.7417 2.51245 26.1058 2.51245 25.4375V7.5C2.51245 6.125 3.00306 4.94833 3.98429 3.97C4.96552 2.99167 6.14366 2.50167 7.51871 2.5H25.4786C26.1462 2.5 26.7928 2.63583 27.4186 2.9075C28.0444 3.17917 28.5867 3.54333 29.0456 4L51.0731 26.0625C51.5738 26.5625 51.9392 27.125 52.1695 27.75C52.3998 28.375 52.5141 29 52.5124 29.625C52.5108 30.25 52.3964 30.865 52.1695 31.47C51.9425 32.075 51.5771 32.6267 51.0731 33.125ZM13.7765 17.5C14.8195 17.5 15.7064 17.1358 16.4374 16.4075C17.1683 15.6792 17.5329 14.7933 17.5312 13.75C17.5295 12.7067 17.1649 11.8217 16.4374 11.095C15.7098 10.3683 14.8228 10.0033 13.7765 10C12.7302 9.99667 11.8441 10.3617 11.1182 11.095C10.3923 11.8283 10.0268 12.7133 10.0218 13.75C10.0168 14.7867 10.3823 15.6725 11.1182 16.4075C11.8541 17.1425 12.7402 17.5067 13.7765 17.5Z" fill="#E4F8FF"/>
</svg>
