<svg width="24" height="24" viewBox="0 0 24 24" fill="none" xmlns="http://www.w3.org/2000/svg">
<path d="M15.6004 0C16.2369 0 16.8474 0.252856 17.2974 0.702944C17.7475 1.15303 18.0004 1.76348 18.0004 2.4H7.20039C6.56387 2.4 5.95342 2.65286 5.50333 3.10294C5.05325 3.55303 4.80039 4.16348 4.80039 4.8V19.2C4.16387 19.2 3.55342 18.9471 3.10333 18.4971C2.65325 18.047 2.40039 17.4365 2.40039 16.8V2.4C2.40039 1.76348 2.65325 1.15303 3.10333 0.702944C3.55342 0.252856 4.16387 0 4.80039 0L15.6004 0Z" fill="#F5F5F5"/>
<path d="M21.6 5.99998C21.6 5.36346 21.3471 4.75301 20.8971 4.30292C20.447 3.85283 19.8365 3.59998 19.2 3.59998H8.4C7.76348 3.59998 7.15303 3.85283 6.70294 4.30292C6.25286 4.75301 6 5.36346 6 5.99998V21.6C6 22.2365 6.25286 22.8469 6.70294 23.297C7.15303 23.7471 7.76348 24 8.4 24H19.2C19.8365 24 20.447 23.7471 20.8971 23.297C21.3471 22.8469 21.6 22.2365 21.6 21.6V5.99998ZM13.2 12H8.4V5.99998H13.2V12ZM19.2 7.19998H14.4V5.99998H19.2V7.19998ZM19.2 9.59998H14.4V8.39998H19.2V9.59998ZM19.2 12H14.4V10.8H19.2V12ZM19.2 14.4H8.4V13.2H19.2V14.4ZM19.2 16.8H8.4V15.6H19.2V16.8ZM19.2 19.2H8.4V18H19.2V19.2Z" fill="#F5F5F5"/>
</svg>
