<svg width="35" height="36" viewBox="0 0 35 36" fill="none" xmlns="http://www.w3.org/2000/svg">
<path d="M5.83325 28.1429V15.2857C5.83325 14.8333 5.94419 14.4048 6.16606 14C6.38794 13.5952 6.69367 13.2619 7.08325 13L16.4582 6.57143C17.0051 6.19048 17.6301 6 18.3332 6C19.0364 6 19.6614 6.19048 20.2082 6.57143L29.5832 13C29.9739 13.2619 30.2801 13.5952 30.502 14C30.7239 14.4048 30.8343 14.8333 30.8332 15.2857V28.1429C30.8332 28.9286 30.527 29.6014 29.9145 30.1614C29.302 30.7214 28.5666 31.0009 27.7082 31H23.0207C22.578 31 22.2072 30.8629 21.9082 30.5886C21.6093 30.3143 21.4593 29.9752 21.4582 29.5714V22.4286C21.4582 22.0238 21.3082 21.6848 21.0082 21.4114C20.7082 21.1381 20.3374 21.0009 19.8957 21H16.7707C16.328 21 15.9572 21.1371 15.6582 21.4114C15.3593 21.6857 15.2093 22.0248 15.2082 22.4286V29.5714C15.2082 29.9762 15.0582 30.3157 14.7582 30.59C14.4582 30.8643 14.0874 31.0009 13.6457 31H8.95825C8.09888 31 7.36346 30.7205 6.752 30.1614C6.14054 29.6024 5.83429 28.9295 5.83325 28.1429Z" fill="#E4F8FF"/>
</svg>
