<svg width="24" height="24" viewBox="0 0 24 24" fill="none" xmlns="http://www.w3.org/2000/svg">
<path d="M2.78659 2.28005C2.88107 2.25211 2.98014 2.24306 3.07812 2.25343C3.1761 2.26379 3.27108 2.29336 3.35764 2.34044C3.44419 2.38752 3.52061 2.4512 3.58255 2.52783C3.64448 2.60446 3.69071 2.69254 3.71859 2.78705L4.26859 4.65005H18.9236C20.7636 4.65005 22.1686 6.36705 21.6386 8.16005L19.9836 13.76C19.6316 14.953 18.5126 15.75 17.2686 15.75H8.11259C6.86859 15.75 5.75059 14.953 5.39759 13.76L2.28059 3.21205C2.22443 3.02149 2.24617 2.81644 2.34104 2.6419C2.4359 2.46735 2.59614 2.33657 2.78659 2.28005ZM6.24959 19.5C6.24959 18.9033 6.48664 18.331 6.9086 17.9091C7.33056 17.4871 7.90285 17.25 8.49959 17.25C9.09633 17.25 9.66862 17.4871 10.0906 17.9091C10.5125 18.331 10.7496 18.9033 10.7496 19.5C10.7496 20.0968 10.5125 20.6691 10.0906 21.091C9.66862 21.513 9.09633 21.75 8.49959 21.75C7.90285 21.75 7.33056 21.513 6.9086 21.091C6.48664 20.6691 6.24959 20.0968 6.24959 19.5ZM14.2496 19.5C14.2496 19.2046 14.3078 18.912 14.4209 18.639C14.5339 18.366 14.6997 18.118 14.9086 17.9091C15.1175 17.7001 15.3656 17.5344 15.6386 17.4213C15.9115 17.3082 16.2041 17.25 16.4996 17.25C16.7951 17.25 17.0876 17.3082 17.3606 17.4213C17.6336 17.5344 17.8816 17.7001 18.0906 17.9091C18.2995 18.118 18.4652 18.366 18.5783 18.639C18.6914 18.912 18.7496 19.2046 18.7496 19.5C18.7496 20.0968 18.5125 20.6691 18.0906 21.091C17.6686 21.513 17.0963 21.75 16.4996 21.75C15.9029 21.75 15.3306 21.513 14.9086 21.091C14.4866 20.6691 14.2496 20.0968 14.2496 19.5Z" fill="#144A5D"/>
</svg>
