<svg width="29" height="27" viewBox="0 0 29 27" fill="none" xmlns="http://www.w3.org/2000/svg">
<path fill-rule="evenodd" clip-rule="evenodd" d="M14.9375 2C13.6943 2 12.502 2.39509 11.6229 3.09835C10.7439 3.80161 10.25 4.75544 10.25 5.75V23.25C10.25 24.2446 10.7439 25.1984 11.6229 25.9017C12.502 26.6049 13.6943 27 14.9375 27H24.3125C25.5557 27 26.748 26.6049 27.6271 25.9017C28.5061 25.1984 29 24.2446 29 23.25V5.75C29 4.75544 28.5061 3.80161 27.6271 3.09835C26.748 2.39509 25.5557 2 24.3125 2H14.9375ZM16.9578 9.86625C17.2508 9.63191 17.6482 9.50027 18.0625 9.50027C18.4768 9.50027 18.8742 9.63191 19.1672 9.86625L23.8547 13.6163C24.1476 13.8507 24.3122 14.1685 24.3122 14.5C24.3122 14.8315 24.1476 15.1493 23.8547 15.3837L19.1672 19.1337C18.8725 19.3614 18.4778 19.4874 18.0681 19.4846C17.6584 19.4817 17.2665 19.3503 16.9768 19.1185C16.6871 18.8868 16.5228 18.5732 16.5193 18.2455C16.5157 17.9178 16.6732 17.602 16.9578 17.3663L18.9781 15.75H5.5625C5.1481 15.75 4.75067 15.6183 4.45765 15.3839C4.16462 15.1495 4 14.8315 4 14.5C4 14.1685 4.16462 13.8505 4.45765 13.6161C4.75067 13.3817 5.1481 13.25 5.5625 13.25H18.9781L16.9578 11.6337C16.6649 11.3993 16.5003 11.0815 16.5003 10.75C16.5003 10.4185 16.6649 10.1007 16.9578 9.86625Z" fill="#E4F8FF"/>
</svg>
