<svg width="24" height="24" viewBox="0 0 24 24" fill="none" xmlns="http://www.w3.org/2000/svg">
<path d="M8.25 12.75C8.25 13.0152 8.14464 13.2696 7.95711 13.4571C7.76957 13.6446 7.51522 13.75 7.25 13.75C6.98478 13.75 6.73043 13.6446 6.54289 13.4571C6.35536 13.2696 6.25 13.0152 6.25 12.75C6.25 12.4848 6.35536 12.2304 6.54289 12.0429C6.73043 11.8554 6.98478 11.75 7.25 11.75C7.51522 11.75 7.76957 11.8554 7.95711 12.0429C8.14464 12.2304 8.25 12.4848 8.25 12.75Z" fill="#F5F5F5"/>
<path d="M5.375 2.5C4.6125 2.5 3.88124 2.8029 3.34207 3.34207C2.8029 3.88124 2.5 4.6125 2.5 5.375V16.125C2.5 16.8875 2.8029 17.6188 3.34207 18.1579C3.88124 18.6971 4.6125 19 5.375 19H16.125C16.8875 19 17.6188 18.6971 18.1579 18.1579C18.6971 17.6188 19 16.8875 19 16.125V5.375C19 4.6125 18.6971 3.88124 18.1579 3.34207C17.6188 2.8029 16.8875 2.5 16.125 2.5H5.375ZM9.5 12.75C9.5 13.3467 9.26295 13.919 8.84099 14.341C8.41903 14.7629 7.84674 15 7.25 15C6.65326 15 6.08097 14.7629 5.65901 14.341C5.23705 13.919 5 13.3467 5 12.75C5 12.1533 5.23705 11.581 5.65901 11.159C6.08097 10.7371 6.65326 10.5 7.25 10.5C7.84674 10.5 8.41903 10.7371 8.84099 11.159C9.26295 11.581 9.5 12.1533 9.5 12.75ZM5 7.625C5 7.28 5.28 7 5.625 7H15.875C16.0408 7 16.1997 7.06585 16.3169 7.18306C16.4342 7.30027 16.5 7.45924 16.5 7.625C16.5 7.79076 16.4342 7.94973 16.3169 8.06694C16.1997 8.18415 16.0408 8.25 15.875 8.25H5.625C5.28 8.25 5 7.97 5 7.625ZM11.125 12.25H15.875C16.0408 12.25 16.1997 12.3158 16.3169 12.4331C16.4342 12.5503 16.5 12.7092 16.5 12.875C16.5 13.0408 16.4342 13.1997 16.3169 13.3169C16.1997 13.4342 16.0408 13.5 15.875 13.5H11.125C10.9592 13.5 10.8003 13.4342 10.6831 13.3169C10.5658 13.1997 10.5 13.0408 10.5 12.875C10.5 12.7092 10.5658 12.5503 10.6831 12.4331C10.8003 12.3158 10.9592 12.25 11.125 12.25Z" fill="#F5F5F5"/>
<path d="M7.62545 21.25C7.15776 21.2505 6.69703 21.1367 6.28336 20.9185C5.8697 20.7002 5.51562 20.3842 5.25195 19.998C5.29295 19.9993 5.33412 20 5.37545 20H16.1255C17.1532 20 18.1388 19.5917 18.8655 18.865C19.5922 18.1383 20.0005 17.1527 20.0005 16.125V5.37496C20.0005 5.33396 19.9998 5.2928 19.9985 5.25146C20.3847 5.51513 20.7007 5.86921 20.9189 6.28288C21.1371 6.69654 21.251 7.15727 21.2505 7.62496V16.125C21.2505 18.955 18.9555 21.25 16.1255 21.25H7.62545Z" fill="#F5F5F5"/>
</svg>
