<svg width="24" height="24" viewBox="0 0 24 24" fill="none" xmlns="http://www.w3.org/2000/svg">
<path d="M11.9998 6.02101C11.9999 5.62425 11.9219 5.23135 11.7701 4.86476C11.6183 4.49818 11.3958 4.1651 11.1153 3.88454C10.8347 3.60399 10.5016 3.38147 10.135 3.2297C9.76846 3.07793 9.37556 2.99987 8.9788 3.00001H6.0208C5.62084 2.99486 5.22384 3.06919 4.85283 3.21869C4.48183 3.36819 4.1442 3.58988 3.85955 3.87089C3.5749 4.1519 3.34889 4.48665 3.19463 4.8557C3.04037 5.22475 2.96094 5.62076 2.96094 6.02076C2.96094 6.42075 3.04037 6.81676 3.19463 7.18581C3.34889 7.55486 3.5749 7.88961 3.85955 8.17062C4.1442 8.45164 4.48183 8.67332 4.85283 8.82282C5.22384 8.97232 5.62084 9.04665 6.0208 9.04151H6.5998V10.5C6.5998 10.5 11.9998 9.77101 11.9998 6.02101ZM9.2498 14C9.2498 15.105 8.3548 16 7.2498 16C6.1448 16 5.2498 15.105 5.2498 14C5.2498 12.895 6.1448 12 7.2498 12C8.3548 12 9.2498 12.895 9.2498 14ZM7.2498 17C5.8313 17 2.9998 17.715 2.9998 19.1335V21H11.4998V19.1335C11.4998 17.7145 8.6683 17 7.2498 17ZM16.7498 16C17.8548 16 18.7498 15.105 18.7498 14C18.7498 12.895 17.8548 12 16.7498 12C15.6448 12 14.7498 12.895 14.7498 14C14.7498 15.105 15.6448 16 16.7498 16ZM16.7498 17C15.3313 17 12.4998 17.715 12.4998 19.1335V21H20.9998V19.1335C20.9998 17.7145 18.1683 17 16.7498 17ZM16.0208 3.50001C15.624 3.49987 15.2311 3.57793 14.8646 3.7297C14.498 3.88147 14.1649 4.10399 13.8843 4.38454C13.6038 4.6651 13.3813 4.99818 13.2295 5.36476C13.0777 5.73135 12.9997 6.12425 12.9998 6.52101C12.9998 10.271 17.7998 11 17.7998 11V9.54151H17.9788C18.3788 9.54665 18.7758 9.47232 19.1468 9.32282C19.5178 9.17332 19.8554 8.95164 20.1401 8.67062C20.4247 8.38961 20.6507 8.05486 20.805 7.68581C20.9592 7.31676 21.0387 6.92075 21.0387 6.52076C21.0387 6.12076 20.9592 5.72475 20.805 5.3557C20.6507 4.98665 20.4247 4.6519 20.1401 4.37089C19.8554 4.08988 19.5178 3.86819 19.1468 3.71869C18.7758 3.56919 18.3788 3.49486 17.9788 3.50001H16.0208Z" fill="#F5F5F5"/>
</svg>
