<svg width="24" height="24" viewBox="0 0 24 24" fill="none" xmlns="http://www.w3.org/2000/svg">
<path d="M8.5 16.5H10.5C10.7833 16.5 11.021 16.404 11.213 16.212C11.405 16.02 11.5007 15.7827 11.5 15.5V13.5C11.5 13.2167 11.404 12.9793 11.212 12.788C11.02 12.5967 10.7827 12.5007 10.5 12.5H8.5C8.21667 12.5 7.97933 12.596 7.788 12.788C7.59667 12.98 7.50067 13.2173 7.5 13.5V15.5C7.5 15.7833 7.596 16.021 7.788 16.213C7.98 16.405 8.21733 16.5007 8.5 16.5ZM8.5 11.5H10.5C10.7833 11.5 11.021 11.404 11.213 11.212C11.405 11.02 11.5007 10.7827 11.5 10.5V8.5C11.5 8.21667 11.404 7.97933 11.212 7.788C11.02 7.59667 10.7827 7.50067 10.5 7.5H8.5C8.21667 7.5 7.97933 7.596 7.788 7.788C7.59667 7.98 7.50067 8.21733 7.5 8.5V10.5C7.5 10.7833 7.596 11.021 7.788 11.213C7.98 11.405 8.21733 11.5007 8.5 11.5ZM13.5 16.5H15.5C15.7833 16.5 16.021 16.404 16.213 16.212C16.405 16.02 16.5007 15.7827 16.5 15.5V13.5C16.5 13.2167 16.404 12.9793 16.212 12.788C16.02 12.5967 15.7827 12.5007 15.5 12.5H13.5C13.2167 12.5 12.9793 12.596 12.788 12.788C12.5967 12.98 12.5007 13.2173 12.5 13.5V15.5C12.5 15.7833 12.596 16.021 12.788 16.213C12.98 16.405 13.2173 16.5007 13.5 16.5ZM13.5 11.5H15.5C15.7833 11.5 16.021 11.404 16.213 11.212C16.405 11.02 16.5007 10.7827 16.5 10.5V8.5C16.5 8.21667 16.404 7.97933 16.212 7.788C16.02 7.59667 15.7827 7.50067 15.5 7.5H13.5C13.2167 7.5 12.9793 7.596 12.788 7.788C12.5967 7.98 12.5007 8.21733 12.5 8.5V10.5C12.5 10.7833 12.596 11.021 12.788 11.213C12.98 11.405 13.2173 11.5007 13.5 11.5ZM4 20C3.45 20 2.97933 19.8043 2.588 19.413C2.19667 19.0217 2.00067 18.5507 2 18V6C2 5.45 2.196 4.97933 2.588 4.588C2.98 4.19667 3.45067 4.00067 4 4H20C20.55 4 21.021 4.196 21.413 4.588C21.805 4.98 22.0007 5.45067 22 6V18C22 18.55 21.8043 19.021 21.413 19.413C21.0217 19.805 20.5507 20.0007 20 20H4Z" fill="#F5F5F5"/>
</svg>
