<svg width="59" height="49" viewBox="0 0 59 49" fill="none" xmlns="http://www.w3.org/2000/svg">
<path d="M2.85879 0.912178C2.2332 0.912178 1.63323 1.16069 1.19087 1.60305C0.748514 2.04541 0.5 2.64538 0.5 3.27097C0.5 3.89656 0.748514 4.49652 1.19087 4.93888C1.63323 5.38124 2.2332 5.62975 2.85879 5.62975H8.0953L14.2848 30.397C14.8108 32.4963 16.6907 33.9352 18.8537 33.9352H48.2678C50.3978 33.9352 52.207 32.5199 52.766 30.4678L58.88 7.98854H53.9407L48.2655 29.2176H18.8514L12.6643 4.45036C12.4087 3.43426 11.8195 2.53332 10.9911 1.89182C10.1627 1.25031 9.14302 0.905349 8.0953 0.912178H2.85879ZM45.317 33.9352C41.4368 33.9352 38.2406 37.1314 38.2406 41.0116C38.2406 44.8918 41.4368 48.0879 45.317 48.0879C49.1972 48.0879 52.3933 44.8918 52.3933 41.0116C52.3933 37.1314 49.1972 33.9352 45.317 33.9352ZM24.0879 33.9352C20.2077 33.9352 17.0115 37.1314 17.0115 41.0116C17.0115 44.8918 20.2077 48.0879 24.0879 48.0879C27.9681 48.0879 31.1642 44.8918 31.1642 41.0116C31.1642 37.1314 27.9681 33.9352 24.0879 33.9352ZM31.1642 0.912178V12.7061H24.0879L33.523 22.1413L42.9582 12.7061H35.8818V0.912178H31.1642ZM24.0879 38.6528C25.4182 38.6528 26.4467 39.6812 26.4467 41.0116C26.4467 42.3419 25.4182 43.3704 24.0879 43.3704C22.7575 43.3704 21.7291 42.3419 21.7291 41.0116C21.7291 39.6812 22.7575 38.6528 24.0879 38.6528ZM45.317 38.6528C46.6473 38.6528 47.6758 39.6812 47.6758 41.0116C47.6758 42.3419 46.6473 43.3704 45.317 43.3704C43.9866 43.3704 42.9582 42.3419 42.9582 41.0116C42.9582 39.6812 43.9866 38.6528 45.317 38.6528Z" fill="#144A5D"/>
</svg>
