<svg width="29" height="26" viewBox="0 0 29 26" fill="none" xmlns="http://www.w3.org/2000/svg">
<path d="M15.1111 16.4762V26H4C4 23.4741 5.17063 21.0517 7.25437 19.2656C9.33811 17.4796 12.1643 16.4762 15.1111 16.4762ZM15.1111 15.2857C10.5069 15.2857 6.77778 12.0893 6.77778 8.14286C6.77778 4.19643 10.5069 1 15.1111 1C19.7153 1 23.4444 4.19643 23.4444 8.14286C23.4444 12.0893 19.7153 15.2857 15.1111 15.2857ZM27.6111 20.0476H29V26H17.8889V20.0476H19.2778V18.8571C19.2778 17.9099 19.7168 17.0015 20.4982 16.3318C21.2796 15.662 22.3394 15.2857 23.4444 15.2857C24.5495 15.2857 25.6093 15.662 26.3907 16.3318C27.1721 17.0015 27.6111 17.9099 27.6111 18.8571V20.0476ZM24.8333 20.0476V18.8571C24.8333 18.5414 24.687 18.2386 24.4265 18.0153C24.1661 17.7921 23.8128 17.6667 23.4444 17.6667C23.0761 17.6667 22.7228 17.7921 22.4623 18.0153C22.2019 18.2386 22.0556 18.5414 22.0556 18.8571V20.0476H24.8333Z" fill="#E4F8FF"/>
</svg>
